<svg width="20" height="20" viewBox="0 0 20 20" fill="none" xmlns="http://www.w3.org/2000/svg">
<path d="M17.997 5.5385C17.4085 5.8 16.777 5.9765 16.112 6.055C16.7895 5.649 17.31 5.006 17.5555 4.24C16.9205 4.615 16.219 4.89 15.4715 5.036C14.8725 4.3985 14.0195 4 13.0755 4C11.2625 4 9.794 5.469 9.794 7.2815C9.794 7.5385 9.8225 7.7895 9.879 8.0295C7.1505 7.8915 4.7325 6.585 3.114 4.6C2.8315 5.085 2.669 5.649 2.669 6.25C2.669 7.39 3.249 8.3935 4.129 8.9825C3.591 8.965 3.085 8.8175 2.6425 8.5725V8.6125C2.6425 10.2035 3.7725 11.53 5.2745 11.8315C4.9995 11.9065 4.7095 11.9465 4.4095 11.9465C4.198 11.9465 3.993 11.9265 3.793 11.888C4.21 13.191 5.423 14.14 6.858 14.167C5.7355 15.047 4.3205 15.572 2.783 15.572C2.518 15.572 2.2565 15.557 2 15.527C3.453 16.457 5.178 17 7.0315 17C13.0675 17 16.369 12 16.369 7.6625C16.369 7.5205 16.365 7.3785 16.359 7.2375C17.0005 6.775 17.5565 6.1975 17.997 5.5385Z" fill="black"/>
</svg>
