<svg width="20" height="20" viewBox="0 0 20 20" fill="none" xmlns="http://www.w3.org/2000/svg">
<path d="M17.835 6.59C17.835 6.59 17.679 5.413 17.2 4.895C16.591 4.216 15.91 4.212 15.597 4.1735C13.3585 4 10.001 4 10.001 4H9.9935C9.9935 4 6.636 4 4.3985 4.1735C4.0855 4.212 3.4045 4.216 2.7955 4.895C2.3175 5.413 2.16 6.59 2.16 6.59C2.16 6.59 2 7.97 2 9.35V10.645C2 12.026 2.16 13.406 2.16 13.406C2.16 13.406 2.316 14.582 2.795 15.099C3.405 15.778 4.203 15.7575 4.559 15.829C5.839 15.959 9.9975 16 9.9975 16C9.9975 16 13.3585 15.994 15.5975 15.8225C15.9095 15.7825 16.591 15.7785 17.1995 15.0995C17.6775 14.5815 17.8345 13.4055 17.8345 13.4055C17.8345 13.4055 17.9945 12.0255 17.9945 10.644V9.35C17.9945 7.97 17.8345 6.589 17.8345 6.589L17.835 6.59Z" fill="black"/>
<path d="M8 7V13L13 10" fill="white"/>
</svg>
