<svg width="20" height="20" viewBox="0 0 20 20" fill="none" xmlns="http://www.w3.org/2000/svg">
<path fill-rule="evenodd" clip-rule="evenodd" d="M17.115 2H2.885C2.76871 1.99974 2.65351 2.02245 2.54602 2.06683C2.43852 2.11121 2.34086 2.17639 2.25862 2.25862C2.17639 2.34086 2.11121 2.43852 2.06683 2.54602C2.02245 2.65351 1.99974 2.76871 2 2.885V17.115C2 17.605 2.395 18 2.885 18H10.544V11.803H8.454V9.403H10.544V7.62C10.544 5.551 11.814 4.431 13.648 4.431C14.523 4.431 15.291 4.484 15.515 4.527V6.682H14.224C13.221 6.682 13.04 7.151 13.04 7.855V9.402H15.419L15.109 11.802H13.04V18H17.115C17.605 18 18 17.605 18 17.115V2.885C18.0003 2.76871 17.9776 2.65351 17.9332 2.54602C17.8888 2.43852 17.8236 2.34086 17.7414 2.25862C17.6591 2.17639 17.5615 2.11121 17.454 2.06683C17.3465 2.02245 17.2313 1.99974 17.115 2Z" fill="black"/>
</svg>
